<svg xmlns="http://www.w3.org/2000/svg" viewBox="0 0 559.92 103.79">
    <defs>
        <style>
            .cls-1 {
                fill: #fff;
            }
        </style>
    </defs>
    <g id="レイヤー_2" data-name="レイヤー 2">
        <g id="レイヤー_1-2" data-name="レイヤー 1">
            <path class="cls-1"
                d="M71.09,0H11.56A11.57,11.57,0,0,0,0,11.56H0a12,12,0,0,0,12,12H71.44A12.58,12.58,0,0,1,84.08,34.71,12.35,12.35,0,0,1,71.8,48.24H12a12,12,0,0,0-12,12V71.8H71.8a35.9,35.9,0,0,0,35.89-35.2C108.08,16.47,91.22,0,71.09,0Z" />
            <circle class="cls-1" cx="11.78" cy="92.01" r="11.78" />
            <path class="cls-1"
                d="M204.53,33.74a23.29,23.29,0,0,1-2.46,11.19,20.28,20.28,0,0,1-6.63,7.33,29.21,29.21,0,0,1-9.63,4.06,49.18,49.18,0,0,1-11.35,1.29h-9.09V86.18h-18.3V10.42h27.82a52.2,52.2,0,0,1,11.61,1.23,27.44,27.44,0,0,1,9.42,4,19.08,19.08,0,0,1,6.31,7.16A23.62,23.62,0,0,1,204.53,33.74Zm-18.29.11a8.23,8.23,0,0,0-1.07-4.39,7.51,7.51,0,0,0-2.89-2.67,12.67,12.67,0,0,0-4.12-1.29,35.27,35.27,0,0,0-4.77-.32h-8V43.05h7.7a28,28,0,0,0,4.93-.42,13.47,13.47,0,0,0,4.22-1.5,8,8,0,0,0,2.95-2.84A8.49,8.49,0,0,0,186.24,33.85Z" />
            <path class="cls-1" d="M225.18,86.18V10.41h16.74V86.18Z" />
            <path class="cls-1"
                d="M267.17,43.08a28.84,28.84,0,0,1,10.28-6.31,35.23,35.23,0,0,1,12-2.11,31.94,31.94,0,0,1,10.68,1.56A15.86,15.86,0,0,1,307.16,41a20.48,20.48,0,0,1,4,8.22A48.26,48.26,0,0,1,312.37,61V86.18h-15V80.87H297a12.4,12.4,0,0,1-5.76,4.81,20.63,20.63,0,0,1-8.37,1.7,25.83,25.83,0,0,1-6.22-.8A18,18,0,0,1,270.83,84a14.08,14.08,0,0,1-4.36-4.81,14.77,14.77,0,0,1-1.7-7.41,12.58,12.58,0,0,1,3-8.72,19.3,19.3,0,0,1,7.62-5.11,40.1,40.1,0,0,1,10.37-2.41,106.6,106.6,0,0,1,11.13-.6v-.8a6.12,6.12,0,0,0-2.61-5.46,11.19,11.19,0,0,0-6.41-1.76,16,16,0,0,0-6.77,1.5A22,22,0,0,0,275.49,52Zm30.17,21.35h-2.1c-1.81,0-3.63.08-5.47.25a23.25,23.25,0,0,0-4.91.95,9.23,9.23,0,0,0-3.56,2.06,4.74,4.74,0,0,0-1.4,3.56,4.35,4.35,0,0,0,.65,2.4,5.07,5.07,0,0,0,1.66,1.6,6.78,6.78,0,0,0,2.3.86,14,14,0,0,0,2.51.25q5,0,7.66-2.76a10.31,10.31,0,0,0,2.66-7.47Z" />
            <path class="cls-1"
                d="M354.47,20.33a8.51,8.51,0,0,1-.75,3.56,9,9,0,0,1-5,4.76,9.72,9.72,0,0,1-3.66.7,9.21,9.21,0,0,1-6.72-2.65,8.63,8.63,0,0,1-2.7-6.37,8.77,8.77,0,0,1,.7-3.46,8.05,8.05,0,0,1,2-2.85,11.09,11.09,0,0,1,3-2,9.08,9.08,0,0,1,3.71-.75,9.92,9.92,0,0,1,3.66.7,9.34,9.34,0,0,1,3,1.91,9.08,9.08,0,0,1,2,2.85A8.55,8.55,0,0,1,354.47,20.33ZM336.83,86.18V36.27h16.44V86.18Z" />
            <path class="cls-1"
                d="M412.1,86.18V58.92a22.5,22.5,0,0,0-.35-4,11.1,11.1,0,0,0-1.16-3.36,5.92,5.92,0,0,0-2.25-2.3,7.13,7.13,0,0,0-3.66-.86,8.29,8.29,0,0,0-3.86.86,7.92,7.92,0,0,0-2.76,2.35,10.87,10.87,0,0,0-1.65,3.46,14.79,14.79,0,0,0-.55,4.06V86.18H379.32V36.27h15.94v6.91h.2A16.83,16.83,0,0,1,397.81,40a14.27,14.27,0,0,1,3.41-2.66,20.9,20.9,0,0,1,4.26-1.8,16.7,16.7,0,0,1,4.91-.71,18.49,18.49,0,0,1,8.52,1.81,16.11,16.11,0,0,1,5.66,4.66,18.34,18.34,0,0,1,3.11,6.56,30,30,0,0,1,.95,7.42V86.18Z" />
            <path class="cls-1"
                d="M503.6,61.82v2a19,19,0,0,1-.1,1.9H467.32a8.64,8.64,0,0,0,1.25,3.81,10.88,10.88,0,0,0,2.71,3,12.76,12.76,0,0,0,3.71,2,13,13,0,0,0,4.26.7,13.8,13.8,0,0,0,6.61-1.45,13.15,13.15,0,0,0,4.41-3.76l11.43,7.22A23.14,23.14,0,0,1,492.43,85a30.84,30.84,0,0,1-13.38,2.75A31.9,31.9,0,0,1,468.42,86a25.83,25.83,0,0,1-8.77-5.11,23.71,23.71,0,0,1-5.91-8.27,27.64,27.64,0,0,1-2.16-11.23,28.15,28.15,0,0,1,2.11-11.07,25.09,25.09,0,0,1,5.71-8.42,25.64,25.64,0,0,1,8.52-5.36,29.12,29.12,0,0,1,10.62-1.91,26.86,26.86,0,0,1,10.13,1.86,22,22,0,0,1,7.91,5.36,24.79,24.79,0,0,1,5.17,8.52A32.92,32.92,0,0,1,503.6,61.82Zm-15.13-6.31A9.82,9.82,0,0,0,486,48.8c-1.64-1.87-4.09-2.81-7.37-2.81a12.52,12.52,0,0,0-4.41.75,11.39,11.39,0,0,0-3.5,2.06,9.9,9.9,0,0,0-2.41,3.05,9,9,0,0,0-1,3.66Z" />
            <path class="cls-1"
                d="M559.22,49.8a12.08,12.08,0,0,0-2.15-.4c-.7-.07-1.39-.1-2.06-.1a11.72,11.72,0,0,0-5.56,1.2,11.25,11.25,0,0,0-3.61,2.9,10.94,10.94,0,0,0-2,3.69,12.45,12.45,0,0,0-.6,3.5V86.18H526.85V36.33h15.84v7.21h.2a16.18,16.18,0,0,1,5.41-6.25,13.9,13.9,0,0,1,8.12-2.43c.66,0,1.31,0,2,.1a7.27,7.27,0,0,1,1.55.31Z" />
        </g>
    </g>
</svg>