<svg xmlns="http://www.w3.org/2000/svg" viewBox="0 0 644.04 103.79">
    <defs>
        <style>
            .cls-1 {
                fill: #31f0bc;
            }

            .cls-2 {
                fill: #4756ef;
            }

            .cls-3 {
                fill: #435eef;
            }
        </style>
    </defs>
    <g id="レイヤー_2" data-name="レイヤー 2">
        <g id="レイヤー_1-2" data-name="レイヤー 1">
            <path class="cls-1"
                d="M71.09,0H11.56A11.57,11.57,0,0,0,0,11.56H0a12,12,0,0,0,12,12H71.44A12.58,12.58,0,0,1,84.08,34.71,12.35,12.35,0,0,1,71.8,48.24H12a12,12,0,0,0-12,12V71.8H71.8a35.9,35.9,0,0,0,35.89-35.2C108.08,16.47,91.22,0,71.09,0Z" />
            <circle class="cls-2" cx="11.78" cy="92.01" r="11.78" />
            <path class="cls-3"
                d="M208.6,40.2a22.47,22.47,0,0,1-2.39,10.86,19.61,19.61,0,0,1-6.44,7.11,28.14,28.14,0,0,1-9.35,3.95,48,48,0,0,1-11,1.25h-8.83V91.1H152.82V17.56h27a51.07,51.07,0,0,1,11.27,1.19,26.57,26.57,0,0,1,9.14,3.85,18.52,18.52,0,0,1,6.13,7A22.92,22.92,0,0,1,208.6,40.2Zm-17.76.11a8,8,0,0,0-1-4.26,7.23,7.23,0,0,0-2.8-2.6,12.18,12.18,0,0,0-4-1.25,34.68,34.68,0,0,0-4.62-.31h-7.8V49.24h7.48a26.32,26.32,0,0,0,4.78-.42,12.71,12.71,0,0,0,4.1-1.45,7.71,7.71,0,0,0,2.86-2.75A8.21,8.21,0,0,0,190.84,40.31Z" />
            <path class="cls-3" d="M229.69,91.1V17.56h17.87V75.62H276V91.1Z" />
            <path class="cls-3"
                d="M348.73,91.1,343,76.66H314.55l-5.4,14.44H289.83l30.85-73.54h17.25L368.47,91.1ZM329,37.19l-9.35,25.24h18.49Z" />
            <path class="cls-3" d="M385,91.1V17.56h17.87V91.1Z" />
            <path class="cls-3"
                d="M471,91.1,441.39,43h-.32l.42,48.09H424.25V17.56H444.5l29.5,48h.31l-.41-48h17.24V91.1Z" />
            <path class="cls-3" d="M512.54,91.1V17.56H562v15h-32.3V46.44h30.54V60.67H529.68V75.94h34.17V91.1Z" />
            <path class="cls-3"
                d="M623.27,91.1l-16-29.19h-6V91.1H583.9V17.56H612a48.49,48.49,0,0,1,10.33,1.09,27,27,0,0,1,9,3.69,19.38,19.38,0,0,1,6.39,6.85,21.45,21.45,0,0,1,2.39,10.6,19.58,19.58,0,0,1-4.05,12.57,22.14,22.14,0,0,1-11.22,7.27L644,91.1Zm-.73-51a7.37,7.37,0,0,0-1.09-4.21,7.59,7.59,0,0,0-2.82-2.49,12.35,12.35,0,0,0-3.87-1.2,29.67,29.67,0,0,0-4.12-.31h-9.5V49h8.46a29,29,0,0,0,4.49-.36,14.33,14.33,0,0,0,4.17-1.3,7.86,7.86,0,0,0,3.08-2.7A8,8,0,0,0,622.54,40.1Z" />
        </g>
    </g>
</svg>